# xmcd
#
# Track frame offsets:
#	150
#	14777
#	32987
#	51656
#	68593
#	83514
#	98433
#	112494
#	128624
#	149254
#	168411
#	187366
#	204219
#	219179
#	237235
#	258878
#	275249
#	292668
#	312230
#	326475
#
# Disc length: 4574 seconds
#
# Revision: 0
# Processed by: cddbd v1.4PL0 Copyright (c) Steve Scherf et al.
# Submitted via: audiograbber 1.80
#
DISCID=2911dc14
DTITLE=Ronnie Milsap - The Essential Ronnie Milsap
DYEAR=1900
DGENRE=
TTITLE0=Stranger Things Have Happened
TTITLE1=She Keeps The Home Fires Burning
TTITLE2=Nobody Likes Sad Songs
TTITLE3=Any Day Now
TTITLE4=A Woman In love
TTITLE5=Cowboys And Clowns
TTITLE6=Snap Your Fingers
TTITLE7=He Got You
TTITLE8=Where Do The Nights Go
TTITLE9=Stranger In My House
TTITLE10=All Is Fair In Love And War
TTITLE11=Happy, Happy Birthday Baby
TTITLE12=(There's) No Getting Over Me
TTITLE13=Make No Mistake, She's Mine (duet with Kenny Rogers)
TTITLE14=How Do I Turn You On
TTITLE15=I Wouldn't Have Missed It For The World
TTITLE16=Why Don't You Spend The Night
TTITLE17=Lost In The Fifties Tonight (In The Still Of The Night)
TTITLE18=Don't You Ever Get Tired (Of Hurting Me)
TTITLE19=Turn That Radio On
EXTD=More on the lines of newage
EXTT0=
EXTT1=
EXTT2=
EXTT3=
EXTT4=
EXTT5=
EXTT6=
EXTT7=
EXTT8=
EXTT9=
EXTT10=
EXTT11=
EXTT12=
EXTT13=
EXTT14=
EXTT15=
EXTT16=
EXTT17=
EXTT18=
EXTT19=
PLAYORDER=
